{"title":"Mai.Dire.Grande.Fratello.Show.2009.1x08.DVB-TRip.MP3.iTA.XviD.fi","uid":5155858,"size":1174222784,"categoryP":"video","categoryS":"tv_shows","magnet":"?xt=urn:btih:4bfad1ad48f79fa6d55227ce6b7a98a0149ec86f&amp;dn=Mai.Dire.Grande.Fratello.Show.2009.1x08.DVB-TRip.MP3.iTA.XviD.fi&amp;tr=udp%3A%2F%2Ftracker.openbittorrent.com%3A80&amp;tr=udp%3A%2F%2Fopen.demonii.com%3A1337&amp;tr=udp%3A%2F%2Ftracker.coppersurfer.tk%3A6969&amp;tr=udp%3A%2F%2Fexodus.desync.com%3A6969","seeders":0,"leechers":1,"uploader":null,"files":1,"time":1257846433,"description":"General\nComplete name                    : Mai.Dire.Grande.Fratello.Show.2009.1x08.DVB-TRip.MP3.iTA.XviD.firefox.avi\nFormat                           : AVI\nFormat/Info                      : Audio Video Interleave\nFile size                        : 1.09 GiB\nDuration                         : 1h 26mn\nOverall bit rate                 : 1 802 Kbps\n\nVideo\nID                               : 0\nFormat                           : MPEG-4 Visual\nFormat profile                   : AdvancedSimple@L5\nFormat settings, BVOP            : Yes\nFormat settings, QPel            : No\nFormat settings, GMC             : No warppoints\nFormat settings, Matrix          : Default (MPEG)\nCodec ID                         : XVID\nCodec ID/Hint                    : XviD\nDuration                         : 1h 26mn\nBit rate                         : 1 661 Kbps\nWidth                            : 512 pixels\nHeight                           : 384 pixels\nDisplay aspect ratio             : 4:3\nFrame rate                       : 25.000 fps\nResolution                       : 24 bits\nColorimetry                      : 4:2:0\nScan type                        : Progressive\nBits/(Pixel*Frame)               : 0.338\nStream size                      : 1.01 GiB (92%)\nWriting library                  : XviD 1.2.1 (UTC 2008-12-04)\n\nAudio\nID                               : 1\nFormat                           : MPEG Audio\nFormat version                   : Version 1\nFormat profile                   : Layer 3\nCodec ID                         : 55\nCodec ID/Hint                    : MP3\nDuration                         : 1h 26mn\nBit rate mode                    : Constant\nBit rate                         : 128 Kbps\nChannel(s)                       : 2 channels\nSampling rate                    : 48.0 KHz\nResolution                       : 16 bits\nStream size                      : 79.6 MiB (7%)\nAlignment                        : Aligned on interleaves\nInterleave, duration             : 24 ms (0.60 video frame)\nInterleave, preload duration     : 192 ms\nTitle                            : VTS_01_1 T01 2_0ch 256Kbps DELAY -320ms\n\n","torrent":{"xt":"urn:btih:4bfad1ad48f79fa6d55227ce6b7a98a0149ec86f","amp;dn":"Mai.Dire.Grande.Fratello.Show.2009.1x08.DVB-TRip.MP3.iTA.XviD.fi","amp;tr":["udp%3A%2F%2Ftracker.openbittorrent.com%3A80","udp%3A%2F%2Fopen.demonii.com%3A1337","udp%3A%2F%2Ftracker.coppersurfer.tk%3A6969","udp%3A%2F%2Fexodus.desync.com%3A6969"],"infoHash":"4bfad1ad48f79fa6d55227ce6b7a98a0149ec86f","infoHashBuffer":{"type":"Buffer","data":[75,250,209,173,72,247,159,166,213,82,39,206,107,122,152,160,20,158,200,111]},"announce":[],"urlList":[]}}